{
  "accessors": [
    {
      "name": "ground_Plane.004-Mesh_positions",
      "componentType": 5126,
      "count": 4,
      "min": [
        -63.196327209472656,
        0.07764799892902374,
        -63.196327209472656
      ],
      "max": [
        63.196327209472656,
        0.07764799892902374,
        63.196327209472656
      ],
      "type": "VEC3",
      "bufferView": 0,
      "byteOffset": 0
    },
    {
      "name": "ground_Plane.004-Mesh_normals",
      "componentType": 5126,
      "count": 4,
      "min": [
        0,
        1,
        0
      ],
      "max": [
        0,
        1,
        0
      ],
      "type": "VEC3",
      "bufferView": 0,
      "byteOffset": 8556
    },
    {
      "name": "ground_Plane.004-Mesh_0_indices",
      "componentType": 5123,
      "count": 6,
      "min": [
        0
      ],
      "max": [
        3
      ],
      "type": "SCALAR",
      "bufferView": 2,
      "byteOffset": 0
    },
    {
      "name": "light_3_Plane.003-Mesh_positions",
      "componentType": 5126,
      "count": 4,
      "min": [
        -59.332096099853516,
        -27.184947967529297,
        116.98707580566406
      ],
      "max": [
        41.00947189331055,
        76.44758605957031,
        161.18516540527344
      ],
      "type": "VEC3",
      "bufferView": 0,
      "byteOffset": 48
    },
    {
      "name": "light_3_Plane.003-Mesh_normals",
      "componentType": 5126,
      "count": 4,
      "min": [
        0.13860000669956207,
        0.30230000615119934,
        0.9430999755859375
      ],
      "max": [
        0.13860000669956207,
        0.30230000615119934,
        0.9430999755859375
      ],
      "type": "VEC3",
      "bufferView": 0,
      "byteOffset": 8604
    },
    {
      "name": "light_3_Plane.003-Mesh_0_indices",
      "componentType": 5123,
      "count": 6,
      "min": [
        0
      ],
      "max": [
        3
      ],
      "type": "SCALAR",
      "bufferView": 2,
      "byteOffset": 12
    },
    {
      "name": "light_1_Plane.002-Mesh_positions",
      "componentType": 5126,
      "count": 4,
      "min": [
        69.64411163330078,
        -16.900415420532227,
        -13.559398651123047
      ],
      "max": [
        109.3549575805664,
        49.960655212402344,
        46.87582015991211
      ],
      "type": "VEC3",
      "bufferView": 0,
      "byteOffset": 96
    },
    {
      "name": "light_1_Plane.002-Mesh_normals",
      "componentType": 5126,
      "count": 4,
      "min": [
        0.8865000009536743,
        0.24799999594688416,
        0.3905999958515167
      ],
      "max": [
        0.8865000009536743,
        0.24799999594688416,
        0.3905999958515167
      ],
      "type": "VEC3",
      "bufferView": 0,
      "byteOffset": 8652
    },
    {
      "name": "light_1_Plane.002-Mesh_0_indices",
      "componentType": 5123,
      "count": 6,
      "min": [
        0
      ],
      "max": [
        3
      ],
      "type": "SCALAR",
      "bufferView": 2,
      "byteOffset": 24
    },
    {
      "name": "light_2_Plane.001-Mesh_positions",
      "componentType": 5126,
      "count": 4,
      "min": [
        -29.146217346191406,
        -4.503808975219727,
        -167.10147094726562
      ],
      "max": [
        39.413719177246094,
        53.766448974609375,
        -114.50749969482422
      ],
      "type": "VEC3",
      "bufferView": 0,
      "byteOffset": 144
    },
    {
      "name": "light_2_Plane.001-Mesh_normals",
      "componentType": 5126,
      "count": 4,
      "min": [
        0.22390000522136688,
        0.5443999767303467,
        -0.8083999752998352
      ],
      "max": [
        0.22390000522136688,
        0.5443999767303467,
        -0.8083999752998352
      ],
      "type": "VEC3",
      "bufferView": 0,
      "byteOffset": 8700
    },
    {
      "name": "light_2_Plane.001-Mesh_0_indices",
      "componentType": 5123,
      "count": 6,
      "min": [
        0
      ],
      "max": [
        3
      ],
      "type": "SCALAR",
      "bufferView": 2,
      "byteOffset": 36
    },
    {
      "name": "Cube_Cube.002-Mesh_positions",
      "componentType": 5126,
      "count": 697,
      "min": [
        -19.24734115600586,
        0.06411600112915039,
        -10.300347328186035
      ],
      "max": [
        14.683440208435059,
        14.737866401672363,
        10.435125350952148
      ],
      "type": "VEC3",
      "bufferView": 0,
      "byteOffset": 192
    },
    {
      "name": "Cube_Cube.002-Mesh_normals",
      "componentType": 5126,
      "count": 697,
      "min": [
        -1,
        -1,
        -0.9979000091552734
      ],
      "max": [
        1,
        1,
        1
      ],
      "type": "VEC3",
      "bufferView": 0,
      "byteOffset": 8748
    },
    {
      "name": "Cube_Cube.002-Mesh_texcoords",
      "componentType": 5126,
      "count": 697,
      "min": [
        0.0073020001873373985,
        0.012763000093400478
      ],
      "max": [
        0.9939420223236084,
        0.9950140118598938
      ],
      "type": "VEC2",
      "bufferView": 1,
      "byteOffset": 0
    },
    {
      "name": "Cube_Cube.002-Mesh_0_indices",
      "componentType": 5123,
      "count": 1434,
      "min": [
        0
      ],
      "max": [
        696
      ],
      "type": "SCALAR",
      "bufferView": 2,
      "byteOffset": 48
    }
  ],
  "asset": {
    "generator": "obj2gltf",
    "version": "2.0"
  },
  "buffers": [
    {
      "name": "cottage_obj",
      "byteLength": 25604,
      "uri": "data:application/octet-stream;base64,"
    }
  ],
  "bufferViews": [
    {
      "name": "bufferView_0",
      "buffer": 0,
      "byteLength": 17112,
      "byteOffset": 0,
      "byteStride": 12,
      "target": 34962
    },
    {
      "name": "bufferView_1",
      "buffer": 0,
      "byteLength": 5576,
      "byteOffset": 17112,
      "byteStride": 8,
      "target": 34962
    },
    {
      "name": "bufferView_2",
      "buffer": 0,
      "byteLength": 2916,
      "byteOffset": 22688,
      "target": 34963
    }
  ],
  "materials": [
    {
      "name": "ground",
      "pbrMetallicRoughness": {
        "baseColorFactor": [
          0.64,
          0.64,
          0.64,
          1
        ],
        "metallicFactor": 0,
        "roughnessFactor": 0.903921569
      },
      "emissiveFactor": [
        0,
        0,
        0
      ],
      "alphaMode": "OPAQUE",
      "doubleSided": false
    },
    {
      "name": "light_1",
      "pbrMetallicRoughness": {
        "baseColorFactor": [
          0.64,
          0.64,
          0.64,
          1
        ],
        "metallicFactor": 0,
        "roughnessFactor": 0.903921569
      },
      "emissiveFactor": [
        0,
        0,
        0
      ],
      "alphaMode": "OPAQUE",
      "doubleSided": false
    },
    {
      "name": "cottage_texture",
      "pbrMetallicRoughness": {
        "baseColorFactor": [
          0.64,
          0.64,
          0.64,
          1
        ],
        "metallicFactor": 0,
        "roughnessFactor": 0.903921569
      },
      "emissiveFactor": [
        0,
        0,
        0
      ],
      "alphaMode": "OPAQUE",
      "doubleSided": false
    }
  ],
  "meshes": [
    {
      "name": "ground_Plane.004-Mesh",
      "primitives": [
        {
          "attributes": {
            "POSITION": 0,
            "NORMAL": 1
          },
          "indices": 2,
          "material": 0,
          "mode": 4
        }
      ]
    },
    {
      "name": "light_3_Plane.003-Mesh",
      "primitives": [
        {
          "attributes": {
            "POSITION": 3,
            "NORMAL": 4
          },
          "indices": 5,
          "material": 1,
          "mode": 4
        }
      ]
    },
    {
      "name": "light_1_Plane.002-Mesh",
      "primitives": [
        {
          "attributes": {
            "POSITION": 6,
            "NORMAL": 7
          },
          "indices": 8,
          "material": 1,
          "mode": 4
        }
      ]
    },
    {
      "name": "light_2_Plane.001-Mesh",
      "primitives": [
        {
          "attributes": {
            "POSITION": 9,
            "NORMAL": 10
          },
          "indices": 11,
          "material": 1,
          "mode": 4
        }
      ]
    },
    {
      "name": "Cube_Cube.002-Mesh",
      "primitives": [
        {
          "attributes": {
            "POSITION": 12,
            "NORMAL": 13,
            "TEXCOORD_0": 14
          },
          "indices": 15,
          "material": 2,
          "mode": 4
        }
      ]
    }
  ],
  "nodes": [
    {
      "name": "ground_Plane.004",
      "mesh": 0
    },
    {
      "name": "light_3_Plane.003",
      "mesh": 1
    },
    {
      "name": "light_1_Plane.002",
      "mesh": 2
    },
    {
      "name": "light_2_Plane.001",
      "mesh": 3
    },
    {
      "name": "Cube_Cube.002",
      "mesh": 4
    }
  ],
  "scene": 0,
  "scenes": [
    {
      "nodes": [
        0,
        1,
        2,
        3,
        4
      ]
    }
  ]
}
