{
  "accessors": [
    {
      "name": "Spider_Eyes_Spider.006-Mesh_positions",
      "componentType": 5126,
      "count": 336,
      "min": [
        -8.477386474609375,
        50.33684158325195,
        -25.089889526367188
      ],
      "max": [
        8.477413177490234,
        51.93846130371094,
        -21.44268798828125
      ],
      "type": "VEC3",
      "bufferView": 0,
      "byteOffset": 0
    },
    {
      "name": "Spider_Eyes_Spider.006-Mesh_normals",
      "componentType": 5126,
      "count": 336,
      "min": [
        -0.8998000025749207,
        -0.7527999877929688,
        -0.9851999878883362
      ],
      "max": [
        0.8998000025749207,
        0.9979000091552734,
        0.13130000233650208
      ],
      "type": "VEC3",
      "bufferView": 0,
      "byteOffset": 25572
    },
    {
      "name": "Spider_Eyes_Spider.006-Mesh_texcoords",
      "componentType": 5126,
      "count": 336,
      "min": [
        -2.004699945449829,
        -1.2910000085830688
      ],
      "max": [
        3.0048000812530518,
        2.2339000701904297
      ],
      "type": "VEC2",
      "bufferView": 1,
      "byteOffset": 0
    },
    {
      "name": "Spider_Eyes_Spider.006-Mesh_0_indices",
      "componentType": 5123,
      "count": 768,
      "min": [
        0
      ],
      "max": [
        335
      ],
      "type": "SCALAR",
      "bufferView": 2,
      "byteOffset": 0
    },
    {
      "name": "Spider_Spider.005-Mesh_positions",
      "componentType": 5126,
      "count": 1221,
      "min": [
        -91.9976806640625,
        1.521968960762024,
        -102.72388458251953
      ],
      "max": [
        91.99774169921875,
        60.94850158691406,
        95.91942596435547
      ],
      "type": "VEC3",
      "bufferView": 0,
      "byteOffset": 4032
    },
    {
      "name": "Spider_Spider.005-Mesh_normals",
      "componentType": 5126,
      "count": 1221,
      "min": [
        -0.9993000030517578,
        -1,
        -0.9954000115394592
      ],
      "max": [
        0.9993000030517578,
        0.9998999834060669,
        0.9994000196456909
      ],
      "type": "VEC3",
      "bufferView": 0,
      "byteOffset": 29604
    },
    {
      "name": "Spider_Spider.005-Mesh_texcoords",
      "componentType": 5126,
      "count": 1221,
      "min": [
        -2.8096001148223877,
        -3.409899950027466
      ],
      "max": [
        3.7286999225616455,
        4.303800106048584
      ],
      "type": "VEC2",
      "bufferView": 1,
      "byteOffset": 2688
    },
    {
      "name": "Spider_Spider.005-Mesh_0_indices",
      "componentType": 5123,
      "count": 300,
      "min": [
        0
      ],
      "max": [
        69
      ],
      "type": "SCALAR",
      "bufferView": 2,
      "byteOffset": 1536
    },
    {
      "name": "Spider_Spider.005-Mesh_1_indices",
      "componentType": 5123,
      "count": 6102,
      "min": [
        70
      ],
      "max": [
        1220
      ],
      "type": "SCALAR",
      "bufferView": 2,
      "byteOffset": 2136
    },
    {
      "name": "Spider_teeth_Spider.004-Mesh_positions",
      "componentType": 5126,
      "count": 180,
      "min": [
        -6.493771076202393,
        38.70979309082031,
        -42.03340148925781
      ],
      "max": [
        6.493805885314941,
        45.85403060913086,
        -29.636260986328125
      ],
      "type": "VEC3",
      "bufferView": 0,
      "byteOffset": 18684
    },
    {
      "name": "Spider_teeth_Spider.004-Mesh_normals",
      "componentType": 5126,
      "count": 180,
      "min": [
        -0.9868999719619751,
        -0.998199999332428,
        -0.9603999853134155
      ],
      "max": [
        0.9868999719619751,
        0.9860000014305115,
        0.3068000078201294
      ],
      "type": "VEC3",
      "bufferView": 0,
      "byteOffset": 44256
    },
    {
      "name": "Spider_teeth_Spider.004-Mesh_texcoords",
      "componentType": 5126,
      "count": 180,
      "min": [
        0.3499999940395355,
        0.3499999940395355
      ],
      "max": [
        0.6499999761581421,
        0.6499999761581421
      ],
      "type": "VEC2",
      "bufferView": 1,
      "byteOffset": 12456
    },
    {
      "name": "Spider_teeth_Spider.004-Mesh_0_indices",
      "componentType": 5123,
      "count": 540,
      "min": [
        0
      ],
      "max": [
        179
      ],
      "type": "SCALAR",
      "bufferView": 2,
      "byteOffset": 14340
    },
    {
      "name": "Spider_Fur_Spider-Mesh_positions",
      "componentType": 5126,
      "count": 394,
      "min": [
        -91.9976806640625,
        1.521968960762024,
        -102.72388458251953
      ],
      "max": [
        91.99774169921875,
        55.40388107299805,
        95.91942596435547
      ],
      "type": "VEC3",
      "bufferView": 0,
      "byteOffset": 20844
    },
    {
      "name": "Spider_Fur_Spider-Mesh_normals",
      "componentType": 5126,
      "count": 394,
      "min": [
        -0.9965000152587891,
        -0.9761000275611877,
        -0.9706000089645386
      ],
      "max": [
        0.758400022983551,
        0.9761000275611877,
        0.9706000089645386
      ],
      "type": "VEC3",
      "bufferView": 0,
      "byteOffset": 46416
    },
    {
      "name": "Spider_Fur_Spider-Mesh_texcoords",
      "componentType": 5126,
      "count": 394,
      "min": [
        -30.821399688720703,
        0.014800000004470348
      ],
      "max": [
        31.868900299072266,
        0.9976000189781189
      ],
      "type": "VEC2",
      "bufferView": 1,
      "byteOffset": 13896
    },
    {
      "name": "Spider_Fur_Spider-Mesh_0_indices",
      "componentType": 5123,
      "count": 480,
      "min": [
        0
      ],
      "max": [
        197
      ],
      "type": "SCALAR",
      "bufferView": 2,
      "byteOffset": 15420
    },
    {
      "name": "Spider_Fur_Spider-Mesh_1_indices",
      "componentType": 5123,
      "count": 480,
      "min": [
        198
      ],
      "max": [
        393
      ],
      "type": "SCALAR",
      "bufferView": 2,
      "byteOffset": 16380
    }
  ],
  "asset": {
    "generator": "obj2gltf",
    "version": "2.0"
  },
  "buffers": [
    {
      "name": "Only_Spider_with_Animations_Export",
      "byteLength": 85532,
      "uri": "data:application/octet-stream;base64,"
    }
  ],
  "bufferViews": [
    {
      "name": "bufferView_0",
      "buffer": 0,
      "byteLength": 51144,
      "byteOffset": 0,
      "byteStride": 12,
      "target": 34962
    },
    {
      "name": "bufferView_1",
      "buffer": 0,
      "byteLength": 17048,
      "byteOffset": 51144,
      "byteStride": 8,
      "target": 34962
    },
    {
      "name": "bufferView_2",
      "buffer": 0,
      "byteLength": 17340,
      "byteOffset": 68192,
      "target": 34963
    }
  ],
  "materials": [
    {
      "name": "Spider_Eye",
      "pbrMetallicRoughness": {
        "baseColorFactor": [
          0,
          0,
          0,
          1
        ],
        "metallicFactor": 0,
        "roughnessFactor": 0.15071496400000006
      },
      "emissiveFactor": [
        0,
        0,
        0
      ],
      "alphaMode": "OPAQUE",
      "doubleSided": false
    },
    {
      "name": "Spider",
      "pbrMetallicRoughness": {
        "baseColorFactor": [
          1,
          1,
          1,
          1
        ],
        "metallicFactor": 0,
        "roughnessFactor": 0.962745098
      },
      "emissiveFactor": [
        0,
        0,
        0
      ],
      "alphaMode": "OPAQUE",
      "doubleSided": false
    },
    {
      "name": "Spider_NONE",
      "pbrMetallicRoughness": {
        "baseColorFactor": [
          1,
          1,
          1,
          1
        ],
        "metallicFactor": 0,
        "roughnessFactor": 0.962745098
      },
      "emissiveFactor": [
        0,
        0,
        0
      ],
      "alphaMode": "OPAQUE",
      "doubleSided": false
    },
    {
      "name": "Spider_teeth",
      "pbrMetallicRoughness": {
        "baseColorFactor": [
          0.413204,
          0.311263,
          0.221805,
          1
        ],
        "metallicFactor": 0,
        "roughnessFactor": 1
      },
      "emissiveFactor": [
        0,
        0,
        0
      ],
      "alphaMode": "OPAQUE",
      "doubleSided": false
    },
    {
      "name": "Spider_Fur",
      "pbrMetallicRoughness": {
        "baseColorFactor": [
          0.724827,
          0.724827,
          0.724827,
          1
        ],
        "metallicFactor": 0,
        "roughnessFactor": 1
      },
      "emissiveFactor": [
        0,
        0,
        0
      ],
      "alphaMode": "OPAQUE",
      "doubleSided": false
    },
    {
      "name": "Spider_Fur_NONE",
      "pbrMetallicRoughness": {
        "baseColorFactor": [
          0.724827,
          0.724827,
          0.724827,
          1
        ],
        "metallicFactor": 0,
        "roughnessFactor": 1
      },
      "emissiveFactor": [
        0,
        0,
        0
      ],
      "alphaMode": "OPAQUE",
      "doubleSided": false
    }
  ],
  "meshes": [
    {
      "name": "Spider_Eyes_Spider.006-Mesh",
      "primitives": [
        {
          "attributes": {
            "POSITION": 0,
            "NORMAL": 1,
            "TEXCOORD_0": 2
          },
          "indices": 3,
          "material": 0,
          "mode": 4
        }
      ]
    },
    {
      "name": "Spider_Spider.005-Mesh",
      "primitives": [
        {
          "attributes": {
            "POSITION": 4,
            "NORMAL": 5,
            "TEXCOORD_0": 6
          },
          "indices": 7,
          "material": 1,
          "mode": 4
        },
        {
          "attributes": {
            "POSITION": 4,
            "NORMAL": 5,
            "TEXCOORD_0": 6
          },
          "indices": 8,
          "material": 2,
          "mode": 4
        }
      ]
    },
    {
      "name": "Spider_teeth_Spider.004-Mesh",
      "primitives": [
        {
          "attributes": {
            "POSITION": 9,
            "NORMAL": 10,
            "TEXCOORD_0": 11
          },
          "indices": 12,
          "material": 3,
          "mode": 4
        }
      ]
    },
    {
      "name": "Spider_Fur_Spider-Mesh",
      "primitives": [
        {
          "attributes": {
            "POSITION": 13,
            "NORMAL": 14,
            "TEXCOORD_0": 15
          },
          "indices": 16,
          "material": 4,
          "mode": 4
        },
        {
          "attributes": {
            "POSITION": 13,
            "NORMAL": 14,
            "TEXCOORD_0": 15
          },
          "indices": 17,
          "material": 5,
          "mode": 4
        }
      ]
    }
  ],
  "nodes": [
    {
      "name": "Spider_Eyes_Spider.006",
      "mesh": 0
    },
    {
      "name": "Spider_Spider.005",
      "mesh": 1
    },
    {
      "name": "Spider_teeth_Spider.004",
      "mesh": 2
    },
    {
      "name": "Spider_Fur_Spider",
      "mesh": 3
    }
  ],
  "scene": 0,
  "scenes": [
    {
      "nodes": [
        0,
        1,
        2,
        3
      ]
    }
  ]
}
